<?xml version="1.0" encoding="UTF-8" standalone="no"?>
<!-- Created with Inkscape (http://www.inkscape.org/) -->

<svg
   xmlns:dc="http://purl.org/dc/elements/1.1/"
   xmlns:cc="http://creativecommons.org/ns#"
   xmlns:rdf="http://www.w3.org/1999/02/22-rdf-syntax-ns#"
   xmlns:svg="http://www.w3.org/2000/svg"
   xmlns="http://www.w3.org/2000/svg"
   xmlns:sodipodi="http://sodipodi.sourceforge.net/DTD/sodipodi-0.dtd"
   xmlns:inkscape="http://www.inkscape.org/namespaces/inkscape"
   width="90"
   height="54"
   id="svg2985"
   version="1.1"
   inkscape:version="0.91 r13725"
   sodipodi:docname="shmoopyfw.svg"
   inkscape:export-filename="C:\Users\Jonathan\Desktop\piggy.png"
   inkscape:export-xdpi="511.88"
   inkscape:export-ydpi="511.88">
  <defs
     id="defs2987" />
  <sodipodi:namedview
     id="base"
     pagecolor="#ffffff"
     bordercolor="#666666"
     borderopacity="1.0"
     inkscape:pageopacity="0.0"
     inkscape:pageshadow="2"
     inkscape:zoom="8"
     inkscape:cx="50.733716"
     inkscape:cy="25.299198"
     inkscape:current-layer="layer1"
     showgrid="true"
     inkscape:grid-bbox="true"
     inkscape:document-units="px"
     inkscape:window-width="1440"
     inkscape:window-height="838"
     inkscape:window-x="-8"
     inkscape:window-y="32"
     inkscape:window-maximized="1">
    <inkscape:grid
       type="xygrid"
       id="grid3031"
       empspacing="5"
       visible="true"
       enabled="true"
       snapvisiblegridlinesonly="true" />
  </sodipodi:namedview>
  <metadata
     id="metadata2990">
    <rdf:RDF>
      <cc:Work
         rdf:about="">
        <dc:format>image/svg+xml</dc:format>
        <dc:type
           rdf:resource="http://purl.org/dc/dcmitype/StillImage" />
        <dc:title />
      </cc:Work>
    </rdf:RDF>
  </metadata>
  <g
     id="layer1"
     inkscape:label="Layer 1"
     inkscape:groupmode="layer"
     transform="translate(0,22)">
    <path
       style="fill:#c35b00;fill-opacity:1;stroke:#000000;stroke-width:0.88405812;stroke-linecap:round;stroke-linejoin:round;stroke-miterlimit:4;stroke-dasharray:none;stroke-opacity:1"
       id="path4196-5"
       sodipodi:type="arc"
       sodipodi:cx="-61.457726"
       sodipodi:cy="0.29707226"
       sodipodi:rx="5.495357"
       sodipodi:ry="3.537401"
       sodipodi:start="5.8375876"
       sodipodi:end="5.7859847"
       d="m -56.498972,-1.227538 a 5.495357,3.537401 0 0 1 -2.526497,4.6966617 5.495357,3.537401 0 0 1 -7.328256,-1.5655999 5.495357,3.537401 0 0 1 2.337422,-4.7370554 5.495357,3.537401 0 0 1 7.388563,1.4433805"
       sodipodi:open="true"
       transform="matrix(-0.89759243,-0.44082631,-0.32889382,0.94436691,0,0)" />
    <rect
       style="fill:#385164;fill-opacity:1;stroke:#0d2c5b;stroke-width:1.5;stroke-linecap:round;stroke-linejoin:round;stroke-miterlimit:4;stroke-dasharray:none;stroke-opacity:1"
       id="rect4166"
       width="18.960552"
       height="13.782925"
       x="35.439251"
       y="16.894604"
       ry="5.0749469"
       rx="9.4236488" />
    <path
       style="fill:#385164;fill-opacity:1;stroke:#0d2c5b;stroke-width:1.5;stroke-miterlimit:4;stroke-dasharray:none;stroke-opacity:1;stroke-linecap:round;stroke-linejoin:round"
       id="path5286"
       sodipodi:type="arc"
       sodipodi:cx="44.909691"
       sodipodi:cy="9.5393906"
       sodipodi:rx="12.66502"
       sodipodi:ry="20.263449"
       sodipodi:start="2.3879944"
       sodipodi:end="0.72442331"
       d="M 35.67396,23.405003 A 12.66502,20.263449 0 0 1 35.962009,-4.8015632 12.66502,20.263449 0 0 1 53.592097,-5.213066 12.66502,20.263449 0 0 1 54.394293,22.968053"
       sodipodi:open="true" />
    <g
       id="g4146"
       transform="matrix(-1,0,0,1,90.229704,0)">
      <path
         transform="matrix(0.99279137,-0.11985527,0.37602844,0.92660812,0,0)"
         sodipodi:open="true"
         d="m 33.660709,7.0120838 a 11.601067,14.019843 0 0 1 0.26385,-19.5155148 11.601067,14.019843 0 0 1 16.149033,-0.28471 11.601067,14.019843 0 0 1 0.734806,19.4979084"
         sodipodi:end="0.72442331"
         sodipodi:start="2.3879944"
         sodipodi:ry="14.019843"
         sodipodi:rx="11.601067"
         sodipodi:cy="-2.5812342"
         sodipodi:cx="42.120571"
         sodipodi:type="arc"
         id="path5286-9"
         style="fill:#385164;fill-opacity:1;stroke:#0d2c5b;stroke-width:1.5269618;stroke-linecap:round;stroke-linejoin:round;stroke-miterlimit:4;stroke-dasharray:none;stroke-opacity:1" />
      <g
         id="g4230">
        <path
           style="fill:#ffffff;fill-opacity:1;stroke:#00004b;stroke-width:1.26032162;stroke-linecap:round;stroke-linejoin:round;stroke-miterlimit:4;stroke-dasharray:none;stroke-opacity:1"
           id="path4186"
           sodipodi:type="arc"
           sodipodi:cx="36.855949"
           sodipodi:cy="-11.836577"
           sodipodi:rx="3.4469659"
           sodipodi:ry="4.0655518"
           sodipodi:start="2.9402156"
           sodipodi:end="2.8767317"
           d="m 33.47864,-11.023391 a 3.4469659,4.0655518 0 0 1 2.634339,-4.783175 3.4469659,4.0655518 0 0 1 4.096698,3.030792 3.4469659,4.0655518 0 0 1 -2.504308,4.8793741 3.4469659,4.0655518 0 0 1 -4.176186,-2.8759171"
           sodipodi:open="true" />
        <path
           style="fill:#000000;fill-opacity:1;stroke:#000000;stroke-width:0.86191767;stroke-linecap:round;stroke-linejoin:round;stroke-miterlimit:4;stroke-dasharray:none;stroke-opacity:1"
           id="path4190"
           sodipodi:type="arc"
           sodipodi:cx="35.336006"
           sodipodi:cy="-10.937544"
           sodipodi:rx="0.51922697"
           sodipodi:ry="0.49680024"
           sodipodi:start="2.9402166"
           sodipodi:end="2.8767389"
           sodipodi:open="true"
           d="m 34.827272,-10.838175 a 0.51922697,0.49680024 0 0 1 0.39682,-0.584492 0.51922697,0.49680024 0 0 1 0.617097,0.370358 0.51922697,0.49680024 0 0 1 -0.377235,0.596246 0.51922697,0.49680024 0 0 1 -0.62907,-0.351434" />
      </g>
      <g
         id="g4234">
        <path
           style="fill:#dcd054;fill-opacity:1;stroke:#b8855b;stroke-width:0.90098441;stroke-linecap:round;stroke-linejoin:round;stroke-miterlimit:4;stroke-dasharray:none;stroke-opacity:1"
           id="path5297"
           sodipodi:type="arc"
           sodipodi:cx="-22.0401"
           sodipodi:cy="-6.1543722"
           sodipodi:rx="10.528827"
           sodipodi:ry="7.0536971"
           sodipodi:start="2.3879944"
           sodipodi:end="3.7836499"
           d="m -29.718051,-1.327759 a 10.528827,7.0536971 0 0 1 -0.754223,-9.050679 l 8.432174,4.2240658 z"
           transform="matrix(-0.9239032,0.3826263,-0.32076224,-0.94715975,0,0)" />
        <path
           style="fill:none;fill-rule:evenodd;stroke:#b8855b;stroke-width:0.89999998;stroke-linecap:round;stroke-linejoin:round;stroke-miterlimit:4;stroke-dasharray:none;stroke-opacity:1"
           d="m 22.754012,-2.7079114 c 0.111181,-0.036529 0.220768,-0.079053 0.333545,-0.1095872 0.02299,-0.00623 0.04996,0.011257 0.07117,0 0.287196,-0.1523066 -0.35328,-0.02347 0.284698,-0.2264725 0.160686,-0.051126 0.334457,-0.036888 0.498222,-0.075493 0.05179,-0.012205 0.09597,-0.048162 0.14235,-0.075493 0.167205,-0.098525 0.32714,-0.2112347 0.498221,-0.3019638 0.383571,-0.2034156 0.355404,-0.083495 0.711745,-0.3774544 0.105941,-0.087389 0.16738,-0.2328302 0.284699,-0.3019595 0.105753,-0.062314 0.242183,-0.031644 0.355873,-0.075493 0.326217,-0.1258181 0.415186,-0.2516362 0.711745,-0.3774544 0.139318,-0.059111 0.28773,-0.091875 0.427047,-0.1509819 0.197026,-0.083589 0.368086,-0.2307898 0.569397,-0.301963 0.114771,-0.040578 0.241107,-0.034915 0.355874,-0.075492 0.38694,-0.1368017 0.20413,-0.1622225 0.569395,-0.3774536 0.111682,-0.065807 0.239122,-0.095945 0.355873,-0.1509818 0.193912,-0.09141 0.379597,-0.2013087 0.569397,-0.301963 0.0949,-0.050331 0.185352,-0.1114679 0.284698,-0.1509819 0.0916,-0.036427 0.188209,-0.058436 0.284698,-0.075493 0.0468,-0.00829 0.09829,0.018687 0.142349,0 0.07943,-0.033694 0.140172,-0.1043021 0.213523,-0.1509819 0.04548,-0.028945 0.09821,-0.044276 0.142349,-0.075493 0.02791,-0.019737 0.03827,-0.068515 0.07117,-0.075493 0.09306,-0.019737 0.191642,0.019738 0.284699,0 0.185132,-0.03927 0.0025,-0.078098 0.07117,-0.150981 0.03355,-0.035589 0.108793,0.035589 0.14235,0 0.01677,-0.017791 0,-0.050331 0,-0.075493 0.04745,0 0.09991,0.022506 0.142349,0 0.04243,-0.022505 -0.04336,-0.1305472 0,-0.1509819 0.106104,-0.049991 0.226072,-0.056202 0.339109,-0.084306"
           id="path4194"
           inkscape:connector-curvature="0" />
      </g>
    </g>
    <path
       style="fill:#385164;fill-opacity:1;stroke:#0d2c5b;stroke-width:1.5199182;stroke-linecap:round;stroke-linejoin:round;stroke-miterlimit:4;stroke-dasharray:none;stroke-opacity:1"
       id="path5286-9-5"
       sodipodi:type="arc"
       sodipodi:cx="57.321423"
       sodipodi:cy="-65.470062"
       sodipodi:rx="7.064949"
       sodipodi:ry="10.430998"
       sodipodi:start="2.3879944"
       sodipodi:end="5.7749206"
       d="m 52.16944,-58.332473 a 7.064949,10.430998 0 0 1 -1.42103,-10.961838 7.064949,10.430998 0 0 1 6.103936,-6.583732 7.064949,10.430998 0 0 1 6.640948,5.33161"
       sodipodi:open="true"
       transform="matrix(0.33552675,-0.94203068,-0.26184216,-0.96511071,0,0)" />
    <path
       style="fill:#c35b00;fill-opacity:1;stroke:#000000;stroke-width:0.88405812;stroke-linecap:round;stroke-linejoin:round;stroke-miterlimit:4;stroke-dasharray:none;stroke-opacity:1"
       id="path4196"
       sodipodi:type="arc"
       sodipodi:cx="25.362394"
       sodipodi:cy="40.824322"
       sodipodi:rx="5.495357"
       sodipodi:ry="3.537401"
       sodipodi:start="5.8375876"
       sodipodi:end="5.7859847"
       d="m 30.321147,39.299711 a 5.495357,3.537401 0 0 1 -2.526496,4.696662 5.495357,3.537401 0 0 1 -7.328256,-1.5656 5.495357,3.537401 0 0 1 2.337422,-4.737055 5.495357,3.537401 0 0 1 7.388563,1.44338"
       transform="matrix(0.89759243,-0.44082631,0.32889382,0.94436691,0,0)"
       sodipodi:open="true" />
  </g>
</svg>
