<?xml version="1.0" encoding="UTF-8" standalone="no"?>
<!-- Created with Inkscape (http://www.inkscape.org/) -->

<svg
   xmlns:dc="http://purl.org/dc/elements/1.1/"
   xmlns:cc="http://creativecommons.org/ns#"
   xmlns:rdf="http://www.w3.org/1999/02/22-rdf-syntax-ns#"
   xmlns:svg="http://www.w3.org/2000/svg"
   xmlns="http://www.w3.org/2000/svg"
   xmlns:sodipodi="http://sodipodi.sourceforge.net/DTD/sodipodi-0.dtd"
   xmlns:inkscape="http://www.inkscape.org/namespaces/inkscape"
   width="210mm"
   height="297mm"
   viewBox="0 0 744.09448819 1052.3622047"
   id="svg2"
   version="1.1"
   inkscape:version="0.92.0 r15299"
   sodipodi:docname="Background Mountain.svg"
   inkscape:export-filename="D:\Code\Unity\littlePiggy\RawStuff\Logan's Artwork\Background Mountain.png"
   inkscape:export-xdpi="566.65558"
   inkscape:export-ydpi="566.65558">
  <defs
     id="defs4" />
  <sodipodi:namedview
     id="base"
     pagecolor="#ffffff"
     bordercolor="#666666"
     borderopacity="1.0"
     inkscape:pageopacity="0.0"
     inkscape:pageshadow="2"
     inkscape:zoom="0.98994949"
     inkscape:cx="391.49467"
     inkscape:cy="611.59948"
     inkscape:document-units="px"
     inkscape:current-layer="layer1"
     showgrid="false"
     inkscape:window-width="1920"
     inkscape:window-height="1001"
     inkscape:window-x="-9"
     inkscape:window-y="-9"
     inkscape:window-maximized="1" />
  <metadata
     id="metadata7">
    <rdf:RDF>
      <cc:Work
         rdf:about="">
        <dc:format>image/svg+xml</dc:format>
        <dc:type
           rdf:resource="http://purl.org/dc/dcmitype/StillImage" />
        <dc:title />
      </cc:Work>
    </rdf:RDF>
  </metadata>
  <g
     inkscape:label="Layer 1"
     inkscape:groupmode="layer"
     id="layer1">
    <path
       style="fill:#688c57;fill-rule:evenodd;stroke:#000000;stroke-width:1.02104926px;stroke-linecap:butt;stroke-linejoin:miter;stroke-opacity:1;fill-opacity:1"
       d="m 65.671134,747.29417 c 0,0 244.739026,-154.26107 266.773456,-389.2575 17.37365,-185.28944 381.7202,389.2864 381.7202,389.2864 z"
       id="path4138"
       inkscape:connector-curvature="0"
       sodipodi:nodetypes="cscc" />
    <path
       style="fill:#ffffff;fill-rule:evenodd;stroke:#000000;stroke-width:1px;stroke-linecap:butt;stroke-linejoin:miter;stroke-opacity:1;fill-opacity:1"
       d="m 318.19805,429.09808 c 0,0 7.07107,15.15229 5.05076,23.23351 -2.0203,8.08122 10.10153,4.04061 14.14214,-9.09137 4.04061,-13.13198 27.27412,-24.24366 33.33503,-18.18275 6.06092,6.06092 37.37565,3.03046 31.31473,30.30458 -6.06091,27.27412 17.1726,26.26397 15.15229,-10.10153 -2.0203,-36.36549 1.01015,-41.41625 15.15229,-34.34518 14.14214,7.07107 34.34519,32.32488 41.41625,31.31473 7.07107,-1.01016 10.10153,-17.1726 10.10153,-17.1726 l -74.75129,-80.8122 -43.43656,-23.23351 -17.17259,0 -12.12183,13.13198 -6.06092,32.32489 -4.04061,25.25381 z"
       id="path4140"
       inkscape:connector-curvature="0" />
    <path
       style="fill:none;fill-opacity:1;fill-rule:evenodd;stroke:#676132;stroke-width:17.96906281;stroke-linecap:butt;stroke-linejoin:miter;stroke-miterlimit:4;stroke-dasharray:none;stroke-opacity:1"
       d="m 479.82246,436.16915 c 0,0 38.3858,27.27412 9.09137,35.35534 -29.29442,8.08122 -169.70563,14.14214 -163.64471,36.36549 6.06091,22.22336 64.64976,21.21321 134.35029,13.13199 69.70052,-8.08122 144.45181,21.2132 88.89342,41.41625 -27.25531,9.91102 -128.41384,19.09273 -208.06838,28.37995 -82.7167,9.64425 -142.24428,19.40227 -71.74387,30.2089 138.3909,21.21321 141.42136,21.2132 141.42136,21.2132 0,0 14.37731,0.79874 36.08837,2.15005 87.47993,5.44482 294.02387,19.8607 158.87106,27.14438 -72.58075,3.91154 -166.2916,14.55479 -249.59506,27.10258 -110.3142,16.61636 -202.37773,36.57257 -202.95327,48.65886"
       id="path4142"
       inkscape:connector-curvature="0"
       sodipodi:nodetypes="csssssscsssc"
       inkscape:export-filename="D:\Code\Unity\littlePiggy\RawStuff\Logan's Artwork\MountainPath.png"
       inkscape:export-xdpi="552.83472"
       inkscape:export-ydpi="552.83472" />
  </g>
</svg>
