<?xml version="1.0" encoding="UTF-8" standalone="no"?>
<!-- Created with Inkscape (http://www.inkscape.org/) -->

<svg
   xmlns:dc="http://purl.org/dc/elements/1.1/"
   xmlns:cc="http://creativecommons.org/ns#"
   xmlns:rdf="http://www.w3.org/1999/02/22-rdf-syntax-ns#"
   xmlns:svg="http://www.w3.org/2000/svg"
   xmlns="http://www.w3.org/2000/svg"
   xmlns:sodipodi="http://sodipodi.sourceforge.net/DTD/sodipodi-0.dtd"
   xmlns:inkscape="http://www.inkscape.org/namespaces/inkscape"
   width="210mm"
   height="297mm"
   viewBox="0 0 744.09448819 1052.3622047"
   id="svg5630"
   version="1.1"
   inkscape:version="0.91 r13725"
   sodipodi:docname="Flower.svg">
  <defs
     id="defs5632" />
  <sodipodi:namedview
     id="base"
     pagecolor="#ffffff"
     bordercolor="#666666"
     borderopacity="1.0"
     inkscape:pageopacity="0.0"
     inkscape:pageshadow="2"
     inkscape:zoom="0.98994949"
     inkscape:cx="45.929435"
     inkscape:cy="497.66193"
     inkscape:document-units="px"
     inkscape:current-layer="layer1"
     showgrid="false"
     inkscape:window-width="2560"
     inkscape:window-height="1377"
     inkscape:window-x="-8"
     inkscape:window-y="-8"
     inkscape:window-maximized="1" />
  <metadata
     id="metadata5635">
    <rdf:RDF>
      <cc:Work
         rdf:about="">
        <dc:format>image/svg+xml</dc:format>
        <dc:type
           rdf:resource="http://purl.org/dc/dcmitype/StillImage" />
        <dc:title></dc:title>
      </cc:Work>
    </rdf:RDF>
  </metadata>
  <g
     inkscape:label="Layer 1"
     inkscape:groupmode="layer"
     id="layer1">
    <path
       style="fill:none;fill-rule:evenodd;stroke:#054f0e;stroke-width:13.30000019;stroke-linecap:butt;stroke-linejoin:miter;stroke-miterlimit:4;stroke-dasharray:none;stroke-opacity:1"
       d="m 342.44171,725.07278 c 0,0 38.3858,-130.30968 17.1726,-193.94929 -21.21321,-63.63961 -21.2132,-85.86297 -21.2132,-85.86297"
       id="path6182"
       inkscape:connector-curvature="0"
       sodipodi:nodetypes="csc" />
    <path
       style="fill:#ffdf2b;fill-rule:evenodd;stroke:#ffd900;stroke-width:7.1;stroke-linecap:butt;stroke-linejoin:miter;stroke-opacity:1;stroke-miterlimit:4;stroke-dasharray:none;fill-opacity:1"
       d="m 307.08636,446.27068 c -67.68022,14.14213 -39.39594,60.60915 -39.39594,60.60915 0,0 48.48733,52.52793 57.5787,-14.14214 9.09137,-66.67007 -18.18276,-46.46701 -18.18276,-46.46701 z"
       id="path6247"
       inkscape:connector-curvature="0"
       sodipodi:nodetypes="ccsc" />
    <path
       style="fill:#ffdf2b;fill-rule:evenodd;stroke:#ffd900;stroke-width:7.4;stroke-linecap:butt;stroke-linejoin:miter;stroke-opacity:1;stroke-miterlimit:4;stroke-dasharray:none;fill-opacity:1"
       d="m 356.74269,457.41283 c 32.55956,60.9958 69.22679,20.8125 69.22679,20.8125 0,0 36.81756,-61.27537 -29.72595,-51.29985 -66.54352,9.97552 -39.50084,30.48735 -39.50084,30.48735 z"
       id="path6247-0"
       inkscape:connector-curvature="0"
       sodipodi:nodetypes="ccsc" />
    <path
       style="fill:#ffdf2b;fill-rule:evenodd;stroke:#ffd900;stroke-width:7.8;stroke-linecap:butt;stroke-linejoin:miter;stroke-opacity:1;stroke-miterlimit:4;stroke-dasharray:none;fill-opacity:1"
       d="m 359.98903,430.33407 c 67.74757,13.81587 60.17687,-40.05313 60.17687,-40.05313 0,0 -23.72193,-67.43496 -58.47188,-9.81558 -34.74995,57.61937 -1.70499,49.86871 -1.70499,49.86871 z"
       id="path6247-7"
       inkscape:connector-curvature="0"
       sodipodi:nodetypes="ccsc" />
    <path
       style="fill:#ffdf2b;fill-rule:evenodd;stroke:#ffd900;stroke-width:7.5;stroke-linecap:butt;stroke-linejoin:miter;stroke-opacity:1;stroke-miterlimit:4;stroke-dasharray:none;fill-opacity:1"
       d="m 330.52517,461.92752 c -28.04827,63.19736 26.18933,67.37676 26.18933,67.37676 0,0 70.95673,-8.68015 22.14859,-54.99769 -48.80816,-46.31755 -48.33792,-12.37907 -48.33792,-12.37907 z"
       id="path6247-2"
       inkscape:connector-curvature="0"
       sodipodi:nodetypes="ccsc" />
    <path
       style="fill:#ffdf2b;fill-rule:evenodd;stroke:#ffd900;stroke-width:6.3;stroke-linecap:butt;stroke-linejoin:miter;stroke-opacity:1;stroke-miterlimit:4;stroke-dasharray:none;fill-opacity:1"
       d="m 341.92033,416.95417 c 42.22537,-54.75061 -9.47694,-71.66376 -9.47694,-71.66376 0,0 -70.9926,-8.38188 -34.55065,48.18256 36.44195,56.56444 44.02759,23.4812 44.02759,23.4812 z"
       id="path6247-04"
       inkscape:connector-curvature="0"
       sodipodi:nodetypes="ccsc" />
    <path
       style="fill:#ffdf2b;fill-rule:evenodd;stroke:#ffd900;stroke-width:7.6;stroke-linecap:butt;stroke-linejoin:miter;stroke-opacity:1;stroke-miterlimit:4;stroke-dasharray:none;fill-opacity:1"
       d="m 316.47068,424.07129 c -19.00479,-66.47879 -63.30222,-34.90471 -63.30222,-34.90471 0,0 -48.8798,52.1629 18.27349,56.40379 67.1533,4.24087 45.02873,-21.49908 45.02873,-21.49908 z"
       id="path6247-3"
       inkscape:connector-curvature="0"
       sodipodi:nodetypes="ccsc" />
    <ellipse
       style="opacity:1;fill:#ffef8a;fill-opacity:1;fill-rule:evenodd;stroke:#fff183;stroke-width:13.30000019;stroke-miterlimit:4;stroke-dasharray:none;stroke-opacity:1"
       id="path6184-5"
       cx="337.39099"
       cy="440.20978"
       rx="20.708128"
       ry="20.203051" />
    <path
       style="fill:#054f0e;fill-rule:evenodd;stroke:#054f0e;stroke-width:1px;stroke-linecap:butt;stroke-linejoin:miter;stroke-opacity:1;fill-opacity:1"
       d="m 347.49248,721.03217 c 0,0 21.2132,-79.80205 41.41625,-103.03556 20.20305,-23.23351 30.30458,-36.36549 30.30458,-36.36549 0,0 11.11167,56.56854 -29.29443,97.9848 -40.4061,41.41625 -42.4264,41.41625 -42.4264,41.41625 z"
       id="path6307"
       inkscape:connector-curvature="0" />
    <path
       style="fill:#054f0e;fill-opacity:1;fill-rule:evenodd;stroke:#054f0e;stroke-width:0.44305387px;stroke-linecap:butt;stroke-linejoin:miter;stroke-opacity:1"
       d="m 345.42018,721.6804 c 0,0 -7.01782,-47.35121 -13.70146,-61.13701 -6.68364,-13.7858 -10.02546,-21.57777 -10.02546,-21.57777 0,0 -3.676,33.56542 9.69128,58.14011 13.36728,24.57467 14.03564,24.57467 14.03564,24.57467 z"
       id="path6307-2"
       inkscape:connector-curvature="0" />
  </g>
</svg>
