<?xml version="1.0" encoding="UTF-8" standalone="no"?>
<!-- Created with Inkscape (http://www.inkscape.org/) -->

<svg
   xmlns:osb="http://www.openswatchbook.org/uri/2009/osb"
   xmlns:dc="http://purl.org/dc/elements/1.1/"
   xmlns:cc="http://creativecommons.org/ns#"
   xmlns:rdf="http://www.w3.org/1999/02/22-rdf-syntax-ns#"
   xmlns:svg="http://www.w3.org/2000/svg"
   xmlns="http://www.w3.org/2000/svg"
   xmlns:sodipodi="http://sodipodi.sourceforge.net/DTD/sodipodi-0.dtd"
   xmlns:inkscape="http://www.inkscape.org/namespaces/inkscape"
   width="210mm"
   height="297mm"
   viewBox="0 0 744.09448819 1052.3622047"
   id="svg6402"
   version="1.1"
   inkscape:version="0.91 r13725"
   sodipodi:docname="Sign.svg">
  <defs
     id="defs6404">
    <linearGradient
       id="linearGradient7034"
       osb:paint="solid">
      <stop
         style="stop-color:#fffffd;stop-opacity:1;"
         offset="0"
         id="stop7036" />
    </linearGradient>
  </defs>
  <sodipodi:namedview
     id="base"
     pagecolor="#ffffff"
     bordercolor="#666666"
     borderopacity="1.0"
     inkscape:pageopacity="0.0"
     inkscape:pageshadow="2"
     inkscape:zoom="0.7"
     inkscape:cx="76.619798"
     inkscape:cy="459.00865"
     inkscape:document-units="px"
     inkscape:current-layer="layer1"
     showgrid="false"
     inkscape:window-width="1707"
     inkscape:window-height="897"
     inkscape:window-x="-8"
     inkscape:window-y="-8"
     inkscape:window-maximized="1" />
  <metadata
     id="metadata6407">
    <rdf:RDF>
      <cc:Work
         rdf:about="">
        <dc:format>image/svg+xml</dc:format>
        <dc:type
           rdf:resource="http://purl.org/dc/dcmitype/StillImage" />
        <dc:title></dc:title>
      </cc:Work>
    </rdf:RDF>
  </metadata>
  <g
     inkscape:label="Layer 1"
     inkscape:groupmode="layer"
     id="layer1">
    <path
       style="fill:none;fill-rule:evenodd;stroke:#000000;stroke-width:1px;stroke-linecap:butt;stroke-linejoin:miter;stroke-opacity:1"
       d="m 192.85714,559.50506 c 0,0 82.85715,22.85714 102.85715,8.57143 20,-14.28571 82.85714,-17.14286 114.28571,-11.42857 31.42857,5.71428 102.85714,22.85714 124.28571,14.28571 21.42858,-8.57143 51.42858,-27.14285 62.85715,-21.42857 11.42857,5.71429 11.42857,7.14286 11.42857,7.14286"
       id="path7028"
       inkscape:connector-curvature="0" />
    <rect
       style="opacity:0.98900003;fill:#c18e00;fill-opacity:0.98431373;fill-rule:evenodd;stroke:#000012;stroke-width:15.30000019;stroke-miterlimit:4;stroke-dasharray:none;stroke-opacity:1"
       id="rect6954"
       width="418.57144"
       height="250"
       x="191.42857"
       y="339.50507" />
    <rect
       style="opacity:0.98900003;fill:#c08e00;fill-opacity:1;fill-rule:evenodd;stroke:#000012;stroke-width:15.30000019;stroke-miterlimit:4;stroke-dasharray:none;stroke-opacity:1"
       id="rect6956"
       width="95.714287"
       height="345.71429"
       x="350"
       y="592.36218" />
    <path
       style="fill:none;fill-rule:evenodd;stroke:#000000;stroke-width:1px;stroke-linecap:butt;stroke-linejoin:miter;stroke-opacity:1"
       d="m 397.14286,780.93363 c 0,0 -11.42857,-10 -14.28572,-34.28571 -2.85714,-24.28572 2.85715,-44.28572 10,-54.28572 7.14286,-10 15.71429,17.14286 12.85715,47.14286 -2.85715,30 -8.57143,41.42857 -8.57143,41.42857 z"
       id="path6958"
       inkscape:connector-curvature="0" />
    <path
       style="fill:none;fill-rule:evenodd;stroke:#000000;stroke-width:1px;stroke-linecap:butt;stroke-linejoin:miter;stroke-opacity:1"
       d="m 391.42857,760.93363 c 0,-11.42857 -4.28571,-28.57143 0,-41.42857 4.28572,-12.85714 11.42857,25.71429 8.57143,34.28572 -2.85714,8.57142 -8.57143,7.14285 -8.57143,7.14285 z"
       id="path6960"
       inkscape:connector-curvature="0" />
    <path
       style="fill:none;fill-rule:evenodd;stroke:#000000;stroke-width:1px;stroke-linecap:butt;stroke-linejoin:miter;stroke-opacity:1"
       d="m 390,803.79078 c 0,0 -37.14286,-74.28572 -1.42857,-144.28572 35.71428,-70 30,41.42857 22.85714,114.28572 -7.14286,72.85714 -4.28571,107.14285 -21.42857,30 z"
       id="path6962"
       inkscape:connector-curvature="0" />
    <path
       style="fill:none;fill-rule:evenodd;stroke:#000000;stroke-width:1px;stroke-linecap:butt;stroke-linejoin:miter;stroke-opacity:1"
       d="m 402.85714,662.3622 c 0,0 -21.42857,20 -21.42857,28.57143 0,8.57143 -10,60 4.28572,90 14.28571,30 15.71428,52.85715 20,-7.14285 C 410,713.79078 410,678.07649 402.85714,662.3622 Z"
       id="path6964"
       inkscape:connector-curvature="0" />
    <path
       style="fill:none;fill-rule:evenodd;stroke:#000000;stroke-width:1px;stroke-linecap:butt;stroke-linejoin:miter;stroke-opacity:1"
       d="m 394.28571,859.50506 c 0,0 -28.57142,-85.71428 -27.14285,-118.57143 1.42857,-32.85714 1.42857,-54.28571 12.85714,-77.14285 11.42857,-22.85715 15.71429,-25.71429 27.14286,-41.42858 11.42857,-15.71428 18.57143,-41.42857 17.14285,15.71429 -1.42857,57.14286 8.57143,124.28571 -5.71428,177.14286 -14.28572,52.85714 -14.28572,68.57143 -18.57143,85.71428 -4.28571,17.14286 -10,-17.14285 -5.71429,-41.42857 z"
       id="path6966"
       inkscape:connector-curvature="0" />
    <path
       style="fill:none;fill-rule:evenodd;stroke:#000000;stroke-width:1px;stroke-linecap:butt;stroke-linejoin:miter;stroke-opacity:1"
       d="m 417.14286,592.3622 c 0,0 -12.85715,21.42858 -24.28572,37.14286 -11.42857,15.71429 -22.85714,31.42857 -28.57143,55.71429 -5.71428,24.28571 -4.28571,47.14285 -1.42857,74.28571 2.85715,27.14286 32.85715,114.28572 12.85715,117.14286 -20,2.85714 7.14285,60 7.14285,60 l 1.42857,-1.42857"
       id="path6968"
       inkscape:connector-curvature="0" />
    <path
       style="fill:none;fill-rule:evenodd;stroke:#000000;stroke-width:1px;stroke-linecap:butt;stroke-linejoin:miter;stroke-opacity:1"
       d="m 404.28571,936.64792 c 0,0 8.57143,-85.71429 17.14286,-104.28572 C 430,813.79078 440,602.3622 430,595.21935 c -10,-7.14286 -1.42857,-1.42857 -1.42857,-1.42857 l 0,0 2.85714,-1.42858"
       id="path6970"
       inkscape:connector-curvature="0" />
    <path
       style="fill:none;fill-rule:evenodd;stroke:#000000;stroke-width:1px;stroke-linecap:butt;stroke-linejoin:miter;stroke-opacity:1"
       d="m 390,863.79078 c 0,0 -4.28571,18.57142 -10,21.42857 -5.71429,2.85714 1.42857,48.57143 8.57143,51.42857 7.14286,2.85714 5.71428,2.85714 5.71428,2.85714"
       id="path6974"
       inkscape:connector-curvature="0" />
    <path
       style="fill:none;fill-rule:evenodd;stroke:#000000;stroke-width:1px;stroke-linecap:butt;stroke-linejoin:miter;stroke-opacity:1"
       d="m 402.85714,595.21935 c 0,0 -55.71428,87.14285 -52.85714,98.57143 2.85714,11.42857 4.28571,10 4.28571,10 l -1.42857,-2.85715 0,0"
       id="path6976"
       inkscape:connector-curvature="0" />
    <path
       style="fill:none;fill-rule:evenodd;stroke:#000000;stroke-width:1px;stroke-linecap:butt;stroke-linejoin:miter;stroke-opacity:1"
       d="m 351.42857,655.21935 c 0,0 44.28572,-48.57143 41.42857,-58.57143 C 390,586.64792 390,590.93363 390,590.93363"
       id="path6978"
       inkscape:connector-curvature="0" />
    <path
       style="fill:none;fill-rule:evenodd;stroke:#000000;stroke-width:1px;stroke-linecap:butt;stroke-linejoin:miter;stroke-opacity:1"
       d="m 390,865.21935 c 0,0 -7.14286,30 -1.42857,40 5.71428,10 11.42857,32.85714 11.42857,32.85714"
       id="path6980"
       inkscape:connector-curvature="0" />
    <path
       style="fill:none;fill-rule:evenodd;stroke:#000000;stroke-width:1px;stroke-linecap:butt;stroke-linejoin:miter;stroke-opacity:1"
       d="m 414.28571,935.21935 c 0,0 10,-107.14286 24.28572,-141.42857 14.28571,-34.28572 4.28571,-25.71429 4.28571,-25.71429"
       id="path6982"
       inkscape:connector-curvature="0" />
    <path
       style="fill:none;fill-rule:evenodd;stroke:#000000;stroke-width:1px;stroke-linecap:butt;stroke-linejoin:miter;stroke-opacity:1"
       d="m 427.14286,938.07649 c 0,0 7.14285,-114.28571 15.71428,-121.42857 8.57143,-7.14286 5.71429,-1.42857 5.71429,-1.42857"
       id="path6984"
       inkscape:connector-curvature="0" />
    <path
       style="fill:none;fill-rule:evenodd;stroke:#000000;stroke-width:1px;stroke-linecap:butt;stroke-linejoin:miter;stroke-opacity:1"
       d="m 391.42857,932.3622 -5.71428,-21.42857 0,0 0,1.42857 0,0 -1.42858,-5.71428"
       id="path6986"
       inkscape:connector-curvature="0" />
    <path
       style="fill:none;fill-rule:evenodd;stroke:#000000;stroke-width:1px;stroke-linecap:butt;stroke-linejoin:miter;stroke-opacity:1"
       d="m 374.28571,935.21935 c 0,0 -11.42857,-11.42857 -10,-37.14286 1.42858,-25.71429 2.85715,-35.71429 10,-37.14286 7.14286,-1.42857 -17.14285,-92.85714 -21.42857,-95.71428 -4.28571,-2.85715 -4.28571,0 -4.28571,0 l 0,1.42857"
       id="path6988"
       inkscape:connector-curvature="0" />
    <path
       style="fill:none;fill-rule:evenodd;stroke:#000000;stroke-width:1px;stroke-linecap:butt;stroke-linejoin:miter;stroke-opacity:1"
       d="m 352.85714,636.64792 c 0,0 32.85715,-31.42857 30,-37.14286 C 380,593.79078 380,592.3622 380,592.3622"
       id="path6990"
       inkscape:connector-curvature="0" />
    <path
       style="fill:none;fill-rule:evenodd;stroke:#000000;stroke-width:1px;stroke-linecap:butt;stroke-linejoin:miter;stroke-opacity:1"
       d="m 352.85714,626.64792 c 0,0 25.71429,-18.57143 24.28572,-28.57143 -1.42857,-10 -1.42857,-7.14286 -1.42857,-7.14286"
       id="path6992"
       inkscape:connector-curvature="0" />
    <path
       style="fill:none;fill-rule:evenodd;stroke:#000000;stroke-width:1px;stroke-linecap:butt;stroke-linejoin:miter;stroke-opacity:1"
       d="m 351.42857,613.79078 c 0,0 22.85714,-7.14286 18.57143,-15.71429 -4.28571,-8.57143 -1.42857,-5.71429 -1.42857,-5.71429"
       id="path6994"
       inkscape:connector-curvature="0" />
    <path
       style="fill:none;fill-rule:evenodd;stroke:#000000;stroke-width:1px;stroke-linecap:butt;stroke-linejoin:miter;stroke-opacity:1"
       d="m 364.28571,936.64792 c 0,0 -12.85714,-30 -11.42857,-42.85714 1.42857,-12.85715 8.57143,-24.28572 12.85715,-37.14286 4.28571,-12.85714 0,-32.85714 -7.14286,-41.42857 -7.14286,-8.57143 -7.14286,-11.42857 -7.14286,-11.42857 l -2.85714,5.71428 0,0 0,1.42857"
       id="path6996"
       inkscape:connector-curvature="0" />
    <path
       style="fill:none;fill-rule:evenodd;stroke:#000000;stroke-width:1px;stroke-linecap:butt;stroke-linejoin:miter;stroke-opacity:1"
       d="m 195.71429,376.64792 c 0,0 15.71428,-27.14286 50,-14.28572 34.28571,12.85715 82.85714,-1.42857 98.57142,-8.57142 15.71429,-7.14286 165.71429,-17.14286 190,10 24.28572,27.14285 72.85715,45.71428 72.85715,45.71428 l 1.42857,5.71429 0,0 L 610,413.79078"
       id="path6998"
       inkscape:connector-curvature="0" />
    <path
       style="fill:none;fill-rule:evenodd;stroke:#000000;stroke-width:1px;stroke-linecap:butt;stroke-linejoin:miter;stroke-opacity:1"
       d="m 614.28571,398.07649 c 0,0 -15.71428,-7.14286 -30,-21.42857 C 570,362.3622 540,333.79078 530,338.07649 c -10,4.28571 -5.71429,4.28571 -5.71429,4.28571"
       id="path7000"
       inkscape:connector-curvature="0" />
    <path
       style="fill:none;fill-rule:evenodd;stroke:#000000;stroke-width:1px;stroke-linecap:butt;stroke-linejoin:miter;stroke-opacity:1"
       d="m 517.14286,340.93363 c 0,0 42.85714,21.42857 44.28571,30 1.42857,8.57143 44.28572,30 44.28572,30"
       id="path7002"
       inkscape:connector-curvature="0" />
    <path
       style="fill:none;fill-rule:evenodd;stroke:#000000;stroke-width:1px;stroke-linecap:butt;stroke-linejoin:miter;stroke-opacity:1"
       d="m 610,383.79078 c 0,0 -17.14286,-12.85715 -25.71429,-18.57143 -8.57142,-5.71429 -18.57142,-20 -18.57142,-20 l 0,0 -2.85715,1.42857 0,0 0,-2.85714 0,0 2.85715,2.85714 0,0 -4.28572,-5.71429"
       id="path7004"
       inkscape:connector-curvature="0" />
    <path
       style="fill:none;fill-rule:evenodd;stroke:#000000;stroke-width:1px;stroke-linecap:butt;stroke-linejoin:miter;stroke-opacity:1"
       d="m 352.85714,340.93363 c 0,0 -54.28571,25.71429 -67.14285,21.42857 -12.85715,-4.28571 -85.71429,-20 -88.57143,0 -2.85715,20 -4.28572,24.28572 -4.28572,24.28572"
       id="path7008"
       inkscape:connector-curvature="0" />
    <rect
       style="opacity:1;fill:#ffd97a;fill-opacity:0.98431373;fill-rule:evenodd;stroke:#000012;stroke-width:5.5999999;stroke-miterlimit:4;stroke-dasharray:none;stroke-opacity:1"
       id="rect7010"
       width="364.28574"
       height="202.85713"
       x="217.14285"
       y="359.5051" />
    <path
       style="fill:none;fill-rule:evenodd;stroke:#000000;stroke-width:1px;stroke-linecap:butt;stroke-linejoin:miter;stroke-opacity:1"
       d="m 322.85714,343.79078 c 0,0 11.42857,2.85714 -15.71428,7.14285 -27.14286,4.28572 -22.85715,-1.42857 -45.71429,-5.71428 -22.85714,-4.28572 -65.71428,8.57143 -65.71428,8.57143 l 0,0 -1.42858,0"
       id="path7014"
       inkscape:connector-curvature="0" />
    <path
       style="fill:none;fill-rule:evenodd;stroke:#000000;stroke-width:1px;stroke-linecap:butt;stroke-linejoin:miter;stroke-opacity:1"
       d="m 608.57143,342.3622 c 0,0 -28.57143,1.42858 -25.71429,10 2.85715,8.57143 17.14286,20 22.85715,12.85715 C 611.42857,358.07649 610,359.50506 610,359.50506"
       id="path7016"
       inkscape:connector-curvature="0" />
    <path
       style="fill:none;fill-rule:evenodd;stroke:#000000;stroke-width:1px;stroke-linecap:butt;stroke-linejoin:miter;stroke-opacity:1"
       d="m 608.57143,352.3622 -14.28572,2.85715 c 0,0 -7.14285,-1.42857 2.85715,4.28571 10,5.71429 10,4.28572 10,4.28572"
       id="path7018"
       inkscape:connector-curvature="0" />
    <path
       style="fill:none;fill-rule:evenodd;stroke:#000000;stroke-width:1px;stroke-linecap:butt;stroke-linejoin:miter;stroke-opacity:1"
       d="m 190,573.79078 c 5.71429,0 108.57143,12.85714 124.28571,4.28571 15.71429,-8.57143 37.14286,-17.14286 60,-7.14286 22.85715,10 64.28572,14.28572 80,8.57143 15.71429,-5.71428 70,-4.28571 77.14286,-1.42857 7.14286,2.85714 35.71429,2.85714 51.42857,-7.14286 15.71429,-10 24.28572,-4.28571 24.28572,-4.28571 l 0,0 2.85714,1.42857"
       id="path7030"
       inkscape:connector-curvature="0" />
    <path
       style="fill:none;fill-rule:evenodd;stroke:#000000;stroke-width:1px;stroke-linecap:butt;stroke-linejoin:miter;stroke-opacity:1"
       d="M 612.85714,419.50506 580,408.07649 581.42857,422.3622 610,426.64792 c 0,0 -24.28571,12.85714 -25.71429,5.71428 -1.42857,-7.14285 -2.85714,10 -2.85714,10 0,0 20,14.28572 24.28572,5.71429 4.28571,-8.57143 5.71428,-7.14286 5.71428,-7.14286"
       id="path7040"
       inkscape:connector-curvature="0" />
    <path
       style="fill:none;fill-rule:evenodd;stroke:#000000;stroke-width:1px;stroke-linecap:butt;stroke-linejoin:miter;stroke-opacity:1"
       d="m 610,459.50506 c 0,0 -27.14286,1.42857 -27.14286,-4.28571 0,-5.71429 0,17.14285 0,17.14285 0,0 14.28572,1.42858 20,-1.42857 C 608.57143,468.07649 610,466.64792 610,466.64792"
       id="path7042"
       inkscape:connector-curvature="0" />
    <path
       style="fill:none;fill-rule:evenodd;stroke:#000000;stroke-width:1px;stroke-linecap:butt;stroke-linejoin:miter;stroke-opacity:1"
       d="m 608.57143,490.93363 c 0,0 -27.14286,-11.42857 -27.14286,0 0,11.42857 -1.42857,28.57143 -1.42857,28.57143 0,0 25.71429,8.57143 28.57143,-2.85714 2.85714,-11.42857 4.28571,-11.42857 4.28571,-11.42857"
       id="path7044"
       inkscape:connector-curvature="0" />
    <path
       style="fill:none;fill-rule:evenodd;stroke:#000000;stroke-width:1px;stroke-linecap:butt;stroke-linejoin:miter;stroke-opacity:1"
       d="m 605.71429,513.79078 c 0,0 -24.28572,-1.42858 -22.85715,-10 1.42857,-8.57143 0,-8.57143 0,-8.57143 l 0,0 c 0,0 27.14286,-10 27.14286,7.14285 0,17.14286 0,18.57143 0,18.57143"
       id="path7046"
       inkscape:connector-curvature="0" />
    <path
       style="fill:none;fill-rule:evenodd;stroke:#000000;stroke-width:1px;stroke-linecap:butt;stroke-linejoin:miter;stroke-opacity:1"
       d="m 611.42857,546.64792 c 0,0 -30,8.57143 -30,-4.28572 0,-12.85714 -2.85714,-12.85714 -2.85714,-12.85714"
       id="path7048"
       inkscape:connector-curvature="0" />
    <path
       style="fill:none;fill-rule:evenodd;stroke:#000000;stroke-width:1px;stroke-linecap:butt;stroke-linejoin:miter;stroke-opacity:1"
       d="m 195.71429,565.21935 c 0,0 37.14285,14.28571 65.71428,7.14285 28.57143,-7.14285 57.14286,-10 57.14286,-10 l 0,0 L 330,565.21935"
       id="path7050"
       inkscape:connector-curvature="0" />
    <path
       style="fill:none;fill-rule:evenodd;stroke:#000000;stroke-width:1px;stroke-linecap:butt;stroke-linejoin:miter;stroke-opacity:1"
       d="m 568.57143,565.21935 c 0,0 -10,10 -15.71429,8.57143 -5.71428,-1.42858 -31.42857,-8.57143 -42.85714,-5.71429 -11.42857,2.85714 -45.71429,-1.42857 -55.71429,4.28571 -10,5.71429 -24.28571,8.57143 -35.71428,1.42858 -11.42857,-7.14286 -32.85714,-10 -32.85714,-10 0,-2.85715 -4.28572,1.42857 -4.28572,1.42857 l -14.28571,-2.85715 0,0"
       id="path7052"
       inkscape:connector-curvature="0" />
    <path
       style="fill:none;fill-rule:evenodd;stroke:#000000;stroke-width:1px;stroke-linecap:butt;stroke-linejoin:miter;stroke-opacity:1"
       d="m 195.71429,549.50506 c 0,0 18.57142,17.14286 20,8.57143 1.42857,-8.57143 1.42857,-8.57143 1.42857,-8.57143"
       id="path7054"
       inkscape:connector-curvature="0" />
    <path
       style="fill:none;fill-rule:evenodd;stroke:#000000;stroke-width:1px;stroke-linecap:butt;stroke-linejoin:miter;stroke-opacity:1"
       d="m 198.57143,528.07649 c 0,0 15.71428,25.71429 17.14286,18.57143 1.42857,-7.14286 0,-7.14286 0,-7.14286 L 192.85714,502.3622 c 0,0 20,24.28572 21.42857,14.28572 1.42858,-10 0,-11.42857 0,-11.42857"
       id="path7056"
       inkscape:connector-curvature="0" />
    <path
       style="fill:none;fill-rule:evenodd;stroke:#000000;stroke-width:1px;stroke-linecap:butt;stroke-linejoin:miter;stroke-opacity:1"
       d="m 197.14286,473.79078 18.57143,-12.85715 0,0 0,0"
       id="path7058"
       inkscape:connector-curvature="0" />
    <path
       style="fill:none;fill-rule:evenodd;stroke:#000000;stroke-width:1px;stroke-linecap:butt;stroke-linejoin:miter;stroke-opacity:1"
       d="m 195.71429,463.79078 18.57142,-10 1.42858,-1.42858"
       id="path7060"
       inkscape:connector-curvature="0" />
    <path
       style="fill:none;fill-rule:evenodd;stroke:#000000;stroke-width:1px;stroke-linecap:butt;stroke-linejoin:miter;stroke-opacity:1"
       d="m 198.57143,446.64792 c 0,0 17.14286,5.71428 17.14286,-1.42857 0,-7.14286 -1.42858,-7.14286 -1.42858,-7.14286"
       id="path7062"
       inkscape:connector-curvature="0" />
    <path
       style="fill:none;fill-rule:evenodd;stroke:#000000;stroke-width:1px;stroke-linecap:butt;stroke-linejoin:miter;stroke-opacity:1"
       d="m 197.14286,425.21935 18.57143,-10 0,2.85714"
       id="path7064"
       inkscape:connector-curvature="0" />
    <path
       style="fill:none;fill-rule:evenodd;stroke:#000000;stroke-width:1px;stroke-linecap:butt;stroke-linejoin:miter;stroke-opacity:1"
       d="m 195.71429,442.3622 c 0,0 10,-12.85714 14.28571,-7.14285 4.28571,5.71428 4.28571,5.71428 4.28571,5.71428"
       id="path7066"
       inkscape:connector-curvature="0" />
    <path
       style="fill:none;fill-rule:evenodd;stroke:#000000;stroke-width:1px;stroke-linecap:butt;stroke-linejoin:miter;stroke-opacity:1"
       d="m 197.14286,432.3622 c 0,0 20,-12.85714 18.57143,-5.71428 -1.42858,7.14286 -1.42858,7.14286 -1.42858,7.14286 l 0,1.42857"
       id="path7068"
       inkscape:connector-curvature="0" />
    <path
       style="fill:none;fill-rule:evenodd;stroke:#000000;stroke-width:1px;stroke-linecap:butt;stroke-linejoin:miter;stroke-opacity:1"
       d="m 194.28571,419.50506 c 0,0 18.57143,-21.42857 20,-14.28571 1.42858,7.14285 1.42858,5.71428 1.42858,5.71428"
       id="path7070"
       inkscape:connector-curvature="0" />
    <path
       style="fill:none;fill-rule:evenodd;stroke:#000000;stroke-width:1px;stroke-linecap:butt;stroke-linejoin:miter;stroke-opacity:1"
       d="m 195.71429,405.21935 20,-20 0,1.42857"
       id="path7072"
       inkscape:connector-curvature="0" />
    <path
       style="fill:none;fill-rule:evenodd;stroke:#000000;stroke-width:1px;stroke-linecap:butt;stroke-linejoin:miter;stroke-opacity:1"
       d="m 198.57143,388.07649 c 0,0 17.14286,-25.71429 17.14286,-15.71429 0,10 0,10 0,10"
       id="path7074"
       inkscape:connector-curvature="0" />
    <path
       style="fill:none;fill-rule:evenodd;stroke:#000000;stroke-width:1px;stroke-linecap:butt;stroke-linejoin:miter;stroke-opacity:1"
       d="m 198.57143,493.79078 c 0,0 14.28571,18.57142 15.71428,2.85714 1.42858,-15.71429 0,-14.28572 0,-14.28572"
       id="path7076"
       inkscape:connector-curvature="0" />
    <path
       style="fill:none;fill-rule:evenodd;stroke:#000000;stroke-width:1px;stroke-linecap:butt;stroke-linejoin:miter;stroke-opacity:1"
       d="m 197.14286,482.3622 c 0,0 14.28571,10 17.14285,-4.28571 2.85715,-14.28571 0,-7.14286 0,-7.14286"
       id="path7078"
       inkscape:connector-curvature="0" />
    <ellipse
       style="opacity:1;fill:#e2ffff;fill-opacity:0.98431373;fill-rule:evenodd;stroke:#000012;stroke-width:5.5999999;stroke-miterlimit:4;stroke-dasharray:none;stroke-opacity:1"
       id="path7080"
       cx="570"
       cy="375.21936"
       rx="4.2857141"
       ry="5.7142859" />
    <ellipse
       style="opacity:1;fill:#edffff;fill-opacity:1;fill-rule:evenodd;stroke:#000012;stroke-width:5.5999999;stroke-miterlimit:4;stroke-dasharray:none;stroke-opacity:1"
       id="path7082"
       cx="569.28571"
       cy="549.50507"
       rx="5"
       ry="5.7142859" />
    <ellipse
       style="opacity:1;fill:#e2ffff;fill-opacity:0.98431373;fill-rule:evenodd;stroke:#000012;stroke-width:5.5999999;stroke-miterlimit:4;stroke-dasharray:none;stroke-opacity:1"
       id="path7082-2"
       cx="227.14285"
       cy="550.93359"
       rx="5"
       ry="5.7142859" />
    <ellipse
       style="opacity:1;fill:#e4ffff;fill-opacity:0.98431373;fill-rule:evenodd;stroke:#000012;stroke-width:5.5999999;stroke-miterlimit:4;stroke-dasharray:none;stroke-opacity:1"
       id="path7082-9"
       cx="227.14285"
       cy="372.36221"
       rx="5"
       ry="5.7142859" />
    <path
       style="fill:#3f8918;fill-opacity:0.98431373;fill-rule:evenodd;stroke:#000000;stroke-width:9.30000019;stroke-linecap:butt;stroke-linejoin:miter;stroke-miterlimit:4;stroke-dasharray:none;stroke-opacity:1"
       d="m 425.71428,935.21935 c 0,0 2.85715,-41.42857 37.14286,-78.57143 34.28571,-37.14285 72.85714,1.42857 72.85714,1.42857 0,0 -50,-20 -65.71428,11.42858 -15.71429,31.42857 -24.28572,71.42857 -24.28572,71.42857 l -20,-1.42857 0,0 z"
       id="path7107"
       inkscape:connector-curvature="0" />
    <path
       style="fill:#3f8918;fill-opacity:0.98431373;fill-rule:evenodd;stroke:#000000;stroke-width:8.08497238;stroke-linecap:butt;stroke-linejoin:miter;stroke-miterlimit:4;stroke-dasharray:none;stroke-opacity:1"
       d="m 359.7516,932.42737 c 0,0 -2.1355,-41.8914 -27.76141,-79.44921 -25.62591,-37.5578 -54.45506,1.44453 -54.45506,1.44453 0,0 37.37112,-20.22343 49.11633,11.55626 11.74521,31.77968 18.15169,72.22655 18.15169,72.22655 l 14.94845,-1.44453 0,0 z"
       id="path7107-3"
       inkscape:connector-curvature="0" />
    <path
       style="fill:#3f8918;fill-opacity:0.98431373;fill-rule:evenodd;stroke:#000000;stroke-width:7.53277493;stroke-linecap:butt;stroke-linejoin:miter;stroke-miterlimit:4;stroke-dasharray:none;stroke-opacity:1"
       d="m 442.96104,937.02421 c 0,0 2.41461,-32.16106 31.38983,-60.99512 28.97522,-28.83406 61.57235,1.109 61.57235,1.109 0,0 -42.25554,-15.52603 -55.53584,8.87202 -13.28032,24.39805 -20.52412,55.45012 -20.52412,55.45012 l -16.90222,-1.109 0,0 z"
       id="path7107-9"
       inkscape:connector-curvature="0" />
  </g>
</svg>
