<?xml version="1.0" encoding="UTF-8" standalone="no"?>
<!-- Created with Inkscape (http://www.inkscape.org/) -->

<svg
   xmlns:dc="http://purl.org/dc/elements/1.1/"
   xmlns:cc="http://creativecommons.org/ns#"
   xmlns:rdf="http://www.w3.org/1999/02/22-rdf-syntax-ns#"
   xmlns:svg="http://www.w3.org/2000/svg"
   xmlns="http://www.w3.org/2000/svg"
   xmlns:sodipodi="http://sodipodi.sourceforge.net/DTD/sodipodi-0.dtd"
   xmlns:inkscape="http://www.inkscape.org/namespaces/inkscape"
   width="210mm"
   height="297mm"
   viewBox="0 0 744.09448819 1052.3622047"
   id="svg2"
   version="1.1"
   inkscape:version="0.91 r13725"
   sodipodi:docname="Wooden Platform.svg">
  <defs
     id="defs4">
    <inkscape:path-effect
       effect="spiro"
       id="path-effect4184"
       is_visible="true" />
    <inkscape:path-effect
       effect="spiro"
       id="path-effect4180"
       is_visible="true" />
    <inkscape:path-effect
       effect="spiro"
       id="path-effect4172"
       is_visible="true" />
    <inkscape:path-effect
       effect="spiro"
       id="path-effect4168"
       is_visible="true" />
    <inkscape:path-effect
       effect="spiro"
       id="path-effect4164"
       is_visible="true" />
    <inkscape:path-effect
       effect="spiro"
       id="path-effect4160"
       is_visible="true" />
    <inkscape:path-effect
       effect="spiro"
       id="path-effect4156"
       is_visible="true" />
    <inkscape:path-effect
       effect="spiro"
       id="path-effect4152"
       is_visible="true" />
    <inkscape:path-effect
       effect="spiro"
       id="path-effect4148"
       is_visible="true" />
    <inkscape:path-effect
       effect="spiro"
       id="path-effect4144"
       is_visible="true" />
  </defs>
  <sodipodi:namedview
     id="base"
     pagecolor="#ffffff"
     bordercolor="#666666"
     borderopacity="1.0"
     inkscape:pageopacity="0.0"
     inkscape:pageshadow="2"
     inkscape:zoom="0.98994949"
     inkscape:cx="452.89384"
     inkscape:cy="600.81549"
     inkscape:document-units="px"
     inkscape:current-layer="layer1"
     showgrid="false"
     inkscape:window-width="1280"
     inkscape:window-height="657"
     inkscape:window-x="-8"
     inkscape:window-y="-8"
     inkscape:window-maximized="1" />
  <metadata
     id="metadata7">
    <rdf:RDF>
      <cc:Work
         rdf:about="">
        <dc:format>image/svg+xml</dc:format>
        <dc:type
           rdf:resource="http://purl.org/dc/dcmitype/StillImage" />
        <dc:title></dc:title>
      </cc:Work>
    </rdf:RDF>
  </metadata>
  <g
     inkscape:label="Layer 1"
     inkscape:groupmode="layer"
     id="layer1">
    <path
       style="fill:#cc9b00;fill-rule:evenodd;stroke:#000000;stroke-width:12.336;stroke-linecap:butt;stroke-linejoin:miter;stroke-miterlimit:4;stroke-dasharray:none;stroke-opacity:1;fill-opacity:1"
       d="m 68.305719,396.45092 -0.244723,78.37225 625.563194,-1.02549 -0.27991,-77.37916 z"
       id="path4138"
       inkscape:connector-curvature="0"
       sodipodi:nodetypes="ccccc" />
    <path
       style="fill:none;fill-rule:evenodd;stroke:#000000;stroke-width:2;stroke-linecap:butt;stroke-linejoin:miter;stroke-opacity:1;stroke-miterlimit:4;stroke-dasharray:none"
       d="m 71.428571,442.07649 c 26.41608,11.41738 57.157109,12.45944 84.285719,2.85714 9.09528,-3.21932 17.80211,-7.58363 27.14285,-10 14.8232,-3.83463 30.40571,-2.57605 45.71429,-2.85714 21.47741,-0.39436 42.80869,-3.87051 64.28571,-4.28571 40.55948,-0.7841 81.1783,9.34555 121.42857,4.28571 13.62162,-1.71237 26.96346,-5.14486 40.48685,-7.51104 13.52339,-2.36619 27.4604,-3.65552 40.94173,-1.06039 4.59101,0.88376 9.11753,2.22231 13.30373,4.30415 4.18621,2.08184 8.03132,4.92643 10.98198,8.55299 1.2935,1.58979 2.4094,3.31984 3.73786,4.88053 1.32846,1.5607 2.91349,2.97405 4.83357,3.6909 1.58376,0.59128 3.30452,0.67777 4.99365,0.74686 1.68913,0.0691 3.4076,0.13224 5.00635,0.68171 1.9478,0.66943 3.58201,2.01315 5.11875,3.38446 1.53673,1.37132 3.04976,2.81623 4.88125,3.7584 3.0298,1.55861 6.59621,1.58075 10,1.42857 31.58261,-1.41206 61.48161,-14.69446 92.85714,-18.57143 12.7923,-1.5807 25.77913,-1.5807 38.57143,0"
       id="path4142"
       inkscape:path-effect="#path-effect4144"
       inkscape:original-d="m 71.428571,442.07649 c 23.39803,-5.17822 63.785979,7.98208 84.285719,2.85714 8.9409,-2.23522 18.19154,-7.76217 27.14285,-10 14.82819,-3.70704 30.9035,0.10502 45.71429,-2.85714 17.04011,-3.40802 45.74383,-8.92119 64.28571,-4.28571 15.03925,3.75981 104.96818,8.40081 121.42857,4.28571 10.50906,-2.62726 73.13471,-12.71836 81.42858,-8.57143 7.46048,3.73024 15.14672,8.28765 24.28571,12.85714 3.59621,1.79811 5.84851,6.75616 8.57143,8.57143 2.16865,1.44577 7.4405,0.57541 10,1.42857 3.44211,1.14737 6.53261,5.98706 10,7.14286 3.1459,1.04864 6.66477,0.31683 10,1.42857 22.40782,7.46928 74.75794,-9.52182 92.85714,-18.57143 8.18174,-4.09086 29.22088,0 38.57143,0"
       inkscape:connector-curvature="0" />
    <path
       style="fill:none;fill-rule:evenodd;stroke:#000000;stroke-width:2.4;stroke-linecap:butt;stroke-linejoin:miter;stroke-opacity:1;stroke-miterlimit:4;stroke-dasharray:none"
       d="m 74.285714,426.3622 c 26.922366,4.02917 54.231996,5.46652 81.428576,4.28572 4.59465,-0.19949 9.31154,-0.50344 13.48939,-2.42599 2.08892,-0.96127 4.01283,-2.33044 5.45687,-4.11996 1.44405,-1.78952 2.38879,-4.0136 2.48231,-6.31119 0.0387,-0.95192 -0.066,-1.90673 0,-2.85715 0.10833,-1.56116 0.68418,-3.0783 1.58636,-4.35698 0.90217,-1.27868 2.1239,-2.3209 3.49834,-3.06913 2.74889,-1.49647 6.03687,-1.79222 9.12911,-1.30864 6.18447,0.96716 11.48504,4.78557 17.21476,7.30618 11.9498,5.25694 25.52583,4.78091 38.57143,4.28572 20.46805,-0.77694 40.94587,-1.36837 61.42857,-1.42858 6.19045,-0.0182 12.38095,0 18.57143,0 l 105.71428,0 c 14.29592,0 28.66755,1.74034 42.85715,0 11.98261,-1.46965 23.31342,-6.18829 35.11706,-8.72146 5.90182,-1.26658 11.96937,-1.98531 17.98166,-1.44857 6.01229,0.53674 11.98699,2.37925 16.90128,5.88432 5.98973,4.27212 10.02946,10.6695 14.47232,16.53371 2.22143,2.9321 4.5902,5.7785 7.37773,8.17885 2.78753,2.40035 6.02112,4.35101 9.57852,5.28744 6.07376,1.59883 12.49169,0.14737 18.57143,-1.42857 12.23537,-3.17154 24.50593,-6.87584 37.14285,-7.14286 1.9044,-0.0402 3.80947,-0.002 5.71429,0 15.48568,0.015 30.9713,-2.40459 45.71428,-7.14286"
       id="path4146"
       inkscape:path-effect="#path-effect4148"
       inkscape:original-d="m 74.285714,426.3622 c 17.758218,-4.98303 68.081366,10.95932 81.428576,4.28572 3.30953,-1.65477 20.07019,-11.49877 21.42857,-12.85714 0.67343,-0.67344 -0.67344,-2.18371 0,-2.85715 3.39513,-3.39513 26.29222,-1.42857 31.42857,-1.42857 14.36394,0 27.8143,-1.09285 38.57143,4.28572 4.49674,2.24837 61.14445,-1.14445 61.42857,-1.42858 1.79025,-1.79024 15.52559,0 18.57143,0 35.23809,0 70.47619,0 105.71428,0 12.98903,0 30.30665,3.13763 42.85715,0 8.49734,-2.12433 60.18117,-9.19512 70,-4.28571 2.46351,1.23176 29.39379,27.96522 31.42857,30 2.37366,2.37366 16.02103,-0.57844 18.57143,-1.42857 11.58909,-3.86303 25.06007,-7.14286 37.14285,-7.14286 0.87178,0 5.15766,0.55663 5.71429,0 4.73336,-4.73336 36.41211,-7.14286 45.71428,-7.14286"
       inkscape:connector-curvature="0" />
    <path
       style="fill:none;fill-rule:evenodd;stroke:#000000;stroke-width:4.4000001;stroke-linecap:butt;stroke-linejoin:miter;stroke-miterlimit:4;stroke-dasharray:none;stroke-opacity:1"
       d="m 690,412.07649 c -23.50495,-7.51798 -49.35219,-7.51798 -72.85714,0 -6.61521,2.11585 -13.11196,4.82395 -20,5.71429 -3.31492,0.42848 -6.68487,0.42682 -10,0 -4.51177,-0.58089 -8.94531,-1.96385 -12.85715,-4.28572 -5.40812,-3.20999 -9.72741,-8.21913 -12.10695,-14.04061"
       id="path4150"
       inkscape:path-effect="#path-effect4152"
       inkscape:original-d="m 690,412.07649 c -23.15572,4.47955 -50.00694,-5.71255 -72.85714,0 -8.51388,2.12847 -20,5.75833 -20,5.71429 0,-2.55588 -7.07887,2.92113 -10,0 -2.85715,-2.85715 -10,-1.42858 -12.85715,-4.28572 -3.64847,-3.64847 -7.22571,-11.59999 -12.10695,-14.04061"
       inkscape:connector-curvature="0"
       sodipodi:nodetypes="cssssc" />
    <path
       style="fill:none;fill-rule:evenodd;stroke:#000000;stroke-width:2.8;stroke-linecap:butt;stroke-linejoin:miter;stroke-opacity:1;stroke-miterlimit:4;stroke-dasharray:none"
       d="m 74.285714,464.93363 c 13.85047,-0.10946 27.694206,-1.0642 41.428576,-2.85714 9.54955,-1.24664 19.04145,-2.89733 28.57142,-4.28571 25.53578,-3.7202 51.33802,-5.55347 77.14286,-5.71429 26.19547,-0.16325 52.37547,1.39354 78.57143,1.42857 7.61914,0.0102 15.23877,-0.10836 22.85714,0 28.16211,0.40057 56.17939,3.89792 84.28572,5.71429 16.64968,1.07598 33.38873,1.56062 50,0 18.10602,-1.70105 36.16557,-5.82915 54.28571,-4.28572 6.24333,0.53179 12.4071,1.73336 18.57143,2.85715 33.46347,6.10056 67.88856,9.95038 101.42857,4.28571 7.18303,-1.21316 14.28533,-2.85683 21.42857,-4.28571 13.21386,-2.6432 26.5746,-4.55188 40,-5.71429"
       id="path4154"
       inkscape:path-effect="#path-effect4156"
       inkscape:original-d="m 74.285714,464.93363 c 13.275881,-2.14863 29.016616,1.28018 41.428576,-2.85714 5.73779,-1.9126 25.15033,-2.57517 28.57142,-4.28571 21.5992,-10.7996 51.1245,-5.71429 77.14286,-5.71429 21.77462,0 58.73948,-5.18208 78.57143,1.42857 6.80803,2.26934 15.7741,-1.41661 22.85714,0 25.56771,5.11354 57.51893,5.71429 84.28572,5.71429 9.45315,0 43.20729,3.39635 50,0 5.93039,-2.9652 46.19512,-8.33101 54.28571,-4.28572 5.4625,2.73125 12.69896,-0.0791 18.57143,2.85715 17.78689,8.89344 82.59123,13.70438 101.42857,4.28571 6.92051,-3.46025 16.06666,1.0762 21.42857,-4.28571 1.8178,-1.8178 34.50036,-2.96447 40,-5.71429"
       inkscape:connector-curvature="0" />
    <path
       style="fill:#a48000;fill-opacity:1;fill-rule:evenodd;stroke:#000000;stroke-width:2.0999999;stroke-linecap:butt;stroke-linejoin:miter;stroke-miterlimit:4;stroke-dasharray:none;stroke-opacity:1"
       d="m 282.28299,436.70176 9.85987,-1.83956 38.92857,-1.61983 c -0.003,0 57.08518,8.30241 60.71428,5.71429 3.06866,-2.18844 57.86248,-3.61607 57.85715,-8.73731 0,-0.35251 40.35714,-8.00369 41.78571,-1.78572 0.31988,1.3923 26.07143,13.57143 26.07143,13.57143 4.56625,4.892 19.49667,13.15839 -2.85714,9.28572 0,0 -13.21429,0.71428 -18.21429,0.35714 -5,-0.35714 -39.64285,-2.14286 -39.64285,-2.14286 l -26.07143,1.42857 c 0,0 -30,2.5 -32.14286,2.5 -2.14286,0 -37.14286,-2.5 -37.14286,-2.5 0,0 -27.14286,-5 -30,-5.35714 -2.85714,-0.35714 -32.01763,-3.6659 -33.21428,-1.07143 -2.90896,6.30698 -12.8925,4.40756 -17.54641,1.23731 0.53837,-3.01354 -28.70646,-11.98371 1.61511,-9.04061 z"
       id="path4186"
       inkscape:connector-curvature="0"
       sodipodi:nodetypes="cccscsccsccscsscc" />
    <path
       style="fill:#a66b00;fill-opacity:1;fill-rule:evenodd;stroke:#000000;stroke-width:1.70000005;stroke-linecap:butt;stroke-linejoin:miter;stroke-miterlimit:4;stroke-dasharray:none;stroke-opacity:1"
       d="m 319.43057,440.61981 c -0.49906,-4.6395 8.16691,-3.61173 9.68926,-3.19633 l 25.16588,3.8673 27.14286,2.14285 c 0,0 18.57143,1.42857 21.07143,1.07143 2.5,-0.35714 32.5,-6.42857 34.28571,-6.78571 1.78572,-0.35715 24.05856,-1.00272 24.05856,-1.00272 0,0 21.33067,-1.11996 23.0843,-0.783 5.71191,1.09754 13.53874,-4.14972 17.13542,3.29351 17.71922,6.04865 3.14913,6.98175 0.36458,7.06364 -2.25779,0.0664 -12.85714,1.78571 -19.64285,1.78571 -6.78572,0 -33.52067,-2.91842 -33.52067,-2.91842 0,0 -3.23967,-0.90555 -17.88253,0.88017 -14.64285,1.78571 -22.5,1.07142 -30.71428,1.78571 -8.21429,0.71429 -0.73967,1.32397 -15.38253,0.96683 -14.64285,-0.35715 -20.71428,-2.14286 -25.35714,-2.5 -4.64286,-0.35715 -19.91331,-4.75746 -22.14286,-3.57143 -5.02538,2.67331 -17.35514,-2.09954 -17.35514,-2.09954 z"
       id="path4188"
       inkscape:connector-curvature="0"
       sodipodi:nodetypes="ccccsscscsscsssssc" />
    <path
       style="fill:#b58b00;fill-opacity:1;fill-rule:evenodd;stroke:#000012;stroke-width:1.89999998;stroke-linecap:butt;stroke-linejoin:miter;stroke-miterlimit:4;stroke-dasharray:none;stroke-opacity:1"
       d="m 260,438.79078 c 0,0 -18.57143,-2.85715 -22.14286,-1.42858 -3.57143,1.42858 -35,-0.71428 -35,-0.71428 l -14.28571,0.71428 c -7.38095,3.57143 -1.67165,-3.14234 -22.14286,10.71429 -2.73202,4.37123 23.31115,1.13074 27.85714,0.71429 4.26785,-0.39097 25,-2.85715 32.85715,-3.57143 7.85714,-0.71429 23.5157,0.27996 26.42857,0.71428 6.56638,0.97907 36.62025,7.27514 12.40283,-3.78063 z"
       id="path4190"
       inkscape:connector-curvature="0"
       sodipodi:nodetypes="cscccssscc" />
  </g>
</svg>
